<?xml version="1.0" standalone="no"?>
<!DOCTYPE svg PUBLIC "-//W3C//DTD SVG 20010904//EN"
 "http://www.w3.org/TR/2001/REC-SVG-20010904/DTD/svg10.dtd">
<svg version="1.0" xmlns="http://www.w3.org/2000/svg"
 width="500.000000pt" height="500.000000pt" viewBox="0 0 500.000000 500.000000"
 preserveAspectRatio="xMidYMid meet">
<metadata>
Created by potrace 1.14, written by Peter Selinger 2001-2017
</metadata>
<g transform="translate(0.000000,500.000000) scale(0.100000,-0.100000)"
fill="#000000" stroke="none">
<path d="M3627 4009 c-105 -25 -219 -120 -268 -223 -26 -54 -29 -72 -29 -156
0 -79 4 -104 24 -146 32 -69 88 -130 150 -162 46 -25 61 -27 161 -27 103 0
113 2 165 30 79 43 189 156 228 234 29 58 32 73 32 155 0 106 -16 150 -76 210
-64 64 -129 88 -247 91 -56 2 -119 -1 -140 -6z"/>
<path d="M2267 3999 c-107 -24 -200 -102 -251 -209 -26 -54 -31 -78 -33 -147
-2 -90 13 -144 56 -203 68 -93 127 -120 260 -122 95 0 106 2 165 31 78 38 172
135 218 224 28 54 32 72 32 142 1 61 -4 91 -20 125 -34 74 -99 132 -168 151
-51 15 -208 19 -259 8z"/>
<path d="M2000 3279 c-25 -4 -65 -10 -89 -14 -70 -10 -222 -51 -271 -73 -84
-36 -140 -101 -140 -161 0 -11 25 -48 55 -82 30 -34 55 -70 55 -81 0 -41 -272
-960 -309 -1044 -10 -22 -37 -56 -61 -75 -97 -78 -110 -93 -121 -128 -16 -55
6 -94 68 -118 44 -16 83 -18 433 -18 412 1 502 3 565 17 43 10 102 59 137 116
l20 33 -28 37 c-15 20 -31 39 -34 42 -15 11 -33 57 -37 90 -3 22 7 75 25 135
38 127 89 292 191 625 88 288 111 385 107 464 -7 140 -114 220 -309 231 -177
10 -211 11 -257 4z"/>
<path d="M3290 3278 c-241 -27 -428 -99 -481 -185 -29 -47 -20 -83 41 -151 55
-62 58 -75 34 -160 -91 -321 -322 -1082 -421 -1385 -41 -127 -72 -164 -208
-249 -66 -41 -89 -62 -105 -93 -19 -40 -20 -52 -7 -91 17 -50 155 -91 322 -97
317 -11 556 64 717 224 109 109 208 268 243 389 4 14 24 81 46 150 71 229 277
928 349 1180 63 223 54 309 -38 390 -55 49 -114 68 -235 75 -153 10 -189 11
-257 3z"/>
</g>
</svg>
